<?xml version="1.0" encoding="UTF-8" standalone="no"?>
<!-- Created with Inkscape (http://www.inkscape.org/) -->

<svg
   width="37.323502mm"
   height="33.799637mm"
   viewBox="0 0 37.323502 33.799637"
   version="1.1"
   id="svg257"
   inkscape:export-filename="位图.svg"
   inkscape:export-xdpi="12.095238"
   inkscape:export-ydpi="12.095238"
   inkscape:version="1.2.2 (732a01da63, 2022-12-09)"
   sodipodi:docname="绘图.svg.2023_07_24_19_34_09.0.svg"
   xmlns:inkscape="http://www.inkscape.org/namespaces/inkscape"
   xmlns:sodipodi="http://sodipodi.sourceforge.net/DTD/sodipodi-0.dtd"
   xmlns="http://www.w3.org/2000/svg"
   xmlns:svg="http://www.w3.org/2000/svg">
  <sodipodi:namedview
     id="namedview259"
     pagecolor="#ffffff"
     bordercolor="#000000"
     borderopacity="0.25"
     inkscape:showpageshadow="2"
     inkscape:pageopacity="0.0"
     inkscape:pagecheckerboard="0"
     inkscape:deskcolor="#d1d1d1"
     inkscape:document-units="mm"
     showgrid="false"
     inkscape:zoom="1.829812"
     inkscape:cx="-21.040413"
     inkscape:cy="494.85958"
     inkscape:window-width="2560"
     inkscape:window-height="1361"
     inkscape:window-x="-9"
     inkscape:window-y="-9"
     inkscape:window-maximized="1"
     inkscape:current-layer="layer1" />
  <defs
     id="defs254" />
  <g
     inkscape:label="图层 1"
     inkscape:groupmode="layer"
     id="layer1"
     transform="translate(-79.192736,-112.07972)">
    <path
       d="m 86.961865,112.33204 a 2.6613117,2.6613117 0 0 1 2.262121,0 5.5355469,5.5355469 0 0 1 1.38387,1.01131 l 5.322657,4.65732 h 3.8057 l 5.322627,-4.65732 a 5.5887612,5.5887612 0 0 1 1.38387,-1.01131 2.6613117,2.6613117 0 0 1 3.53959,2.20891 2.6613117,2.6613117 0 0 1 -0.58549,1.78309 14.876795,14.876795 0 0 1 -1.17098,1.06452 7.6912068,7.6912068 0 0 1 -0.74516,0.61211 h 3.32664 a 5.6420086,5.6420086 0 0 1 3.91216,1.75647 5.6685993,5.6685993 0 0 1 1.78309,3.91213 v 15.30261 a 10.778365,10.778365 0 0 1 -0.13308,2.31534 5.9081464,5.9081464 0 0 1 -2.66131,3.72586 5.7218467,5.7218467 0 0 1 -3.06054,0.85163 H 86.216666 a 11.284017,11.284017 0 0 1 -2.395174,-0.13309 5.8815227,5.8815227 0 0 1 -3.672616,-2.66131 5.695223,5.695223 0 0 1 -0.904875,-3.06053 v -15.1429 a 11.922722,11.922722 0 0 1 0,-2.20891 5.854899,5.854899 0 0 1 5.322657,-4.73713 h 3.486348 c -0.558899,-0.39919 -1.037927,-0.87825 -1.543579,-1.30407 a 2.6613117,2.6613117 0 0 1 -0.851628,-2.18228 2.6613117,2.6613117 0 0 1 1.304066,-2.10245 m -0.612147,10.32593 a 2.6613117,2.6613117 0 0 0 -2.102446,1.91615 3.5927774,3.5927774 0 0 0 0,1.0113 v 12.58805 a 2.6613117,2.6613117 0 0 0 1.836308,2.66134 3.5129394,3.5129394 0 0 0 1.144356,0.18627 h 21.636574 a 2.6613117,2.6613117 0 0 0 2.52822,-1.57017 3.7258629,3.7258629 0 0 0 0.26614,-1.75647 v -11.7098 a 4.4710288,4.4710288 0 0 0 0,-1.27744 2.6613117,2.6613117 0 0 0 -1.72985,-1.80972 4.2847291,4.2847291 0 0 0 -1.65,-0.23951 H 87.600536 a 8.8888103,8.8888103 0 0 0 -1.250818,0 z m 0,0"
       fill="#20b0e3"
       p-id="2309"
       id="path134"
       style="stroke-width:0.0330729" />
    <path
       style="fill:#20b0e3;fill-opacity:1;stroke-width:0.524159;stroke-dasharray:none"
       id="path2136"
       d="m 88.970275,128.63584 c 0.362973,0.37764 0.744635,0.74674 1.088112,1.14197 0.596785,0.6867 1.11755,1.19743 1.665422,1.80902 -0.128499,-1.1169 1.304201,-1.19829 0.07415,-1.75707 -0.40768,0.41721 -0.941319,0.88379 -1.360586,1.2229 -0.391356,0.31654 -0.862154,0.67045 -1.234617,0.95221 -1.907037,1.44263 0.225892,4.05276 2.130777,2.60729 v 0 c 0,0 1.998815,-1.53512 2.806622,-2.30144 0.439578,-0.417 0.679767,-0.95562 0.719062,-1.59155 0.04041,-0.65403 -0.534308,-1.24081 -0.793472,-1.49811 -0.920379,-0.91377 -1.742312,-1.968 -2.550432,-2.81176 -1.574673,-1.7995 -4.119729,0.42727 -2.545056,2.22677 z"
       sodipodi:nodetypes="csccsssssssccc" />
    <path
       style="fill:#20b0e3;fill-opacity:1;stroke-width:0.524159;stroke-dasharray:none"
       id="path2136-5"
       d="m 106.97887,128.63584 c -0.36298,0.37764 -0.74464,0.74674 -1.08812,1.14197 -0.59678,0.6867 -1.11755,1.19743 -1.66542,1.80902 0.1285,-1.1169 -1.3042,-1.19829 -0.0742,-1.75707 0.40768,0.41721 0.94132,0.88379 1.36059,1.2229 0.39135,0.31654 0.86215,0.67045 1.23462,0.95221 1.90703,1.44263 -0.2259,4.05276 -2.13078,2.60729 v 0 c 0,0 -1.99882,-1.53512 -2.80662,-2.30144 -0.43958,-0.417 -0.67977,-0.95562 -0.71907,-1.59155 -0.0404,-0.65403 0.53431,-1.24081 0.79348,-1.49811 0.92038,-0.91377 1.74231,-1.968 2.55043,-2.81176 1.57467,-1.7995 4.11973,0.42727 2.54505,2.22677 z"
       sodipodi:nodetypes="csccsssssssccc" />
  </g>
</svg>
