<svg xmlns="http://www.w3.org/2000/svg" width="141.065" height="127.747" viewBox="0 0 37.324 33.8"><path fill="#20b0e3" d="M86.962 112.332a2.661 2.661 0 0 1 2.262 0 5.536 5.536 0 0 1 1.384 1.011l5.323 4.658h3.805l5.323-4.658a5.589 5.589 0 0 1 1.384-1.011 2.661 2.661 0 0 1 3.54 2.209 2.661 2.661 0 0 1-.586 1.783 14.877 14.877 0 0 1-1.171 1.065 7.691 7.691 0 0 1-.745.612h3.326a5.642 5.642 0 0 1 3.912 1.756 5.669 5.669 0 0 1 1.784 3.912v15.303a10.778 10.778 0 0 1-.134 2.315 5.908 5.908 0 0 1-2.66 3.726 5.722 5.722 0 0 1-3.061.852H86.217a11.284 11.284 0 0 1-2.396-.133 5.882 5.882 0 0 1-3.672-2.662 5.695 5.695 0 0 1-.905-3.06v-15.143a11.923 11.923 0 0 1 0-2.209 5.855 5.855 0 0 1 5.323-4.737h3.486c-.559-.4-1.038-.878-1.544-1.304a2.661 2.661 0 0 1-.851-2.183 2.661 2.661 0 0 1 1.304-2.102m-.612 10.326a2.661 2.661 0 0 0-2.103 1.916 3.593 3.593 0 0 0 0 1.011v12.588a2.661 2.661 0 0 0 1.837 2.662 3.513 3.513 0 0 0 1.144.186h21.637a2.661 2.661 0 0 0 2.528-1.57 3.726 3.726 0 0 0 .266-1.757v-11.71a4.471 4.471 0 0 0 0-1.277 2.661 2.661 0 0 0-1.73-1.81 4.285 4.285 0 0 0-1.65-.239H87.601a8.889 8.889 0 0 0-1.251 0zm0 0" style="stroke-width:.0330729" transform="translate(-79.193 -112.08)"/><path d="M88.97 128.636c.363.377.745.747 1.088 1.142.597.687 1.118 1.197 1.666 1.809-.129-1.117 1.304-1.198.074-1.757-.408.417-.941.884-1.36 1.223-.392.316-.863.67-1.235.952-1.907 1.443.226 4.053 2.13 2.607 0 0 2-1.535 2.807-2.301.44-.417.68-.956.72-1.592.04-.654-.535-1.24-.794-1.498-.92-.914-1.743-1.968-2.55-2.812-1.575-1.8-4.12.428-2.546 2.227zM106.979 128.636c-.363.377-.745.747-1.088 1.142-.597.687-1.118 1.197-1.666 1.809.129-1.117-1.304-1.198-.074-1.757.408.417.941.884 1.36 1.223.392.316.863.67 1.235.952 1.907 1.443-.226 4.053-2.13 2.607 0 0-2-1.535-2.807-2.301-.44-.417-.68-.956-.72-1.592-.04-.654.535-1.24.794-1.498.92-.914 1.743-1.968 2.55-2.812 1.575-1.8 4.12.428 2.546 2.227z" style="fill:#20b0e3;fill-opacity:1;stroke-width:.524159;stroke-dasharray:none" transform="translate(-79.193 -112.08)"/></svg>
